ffmpeg version 2.8.11-0ubuntu0.16.04.1 Copyright (c) 2000-2017 the FFmpeg developers
  built with gcc 5.4.0 (Ubuntu 5.4.0-6ubuntu1~16.04.4) 20160609
  configuration: --prefix=/usr --extra-version=0ubuntu0.16.04.1 --build-suffix=-ffmpeg --toolchain=hardened --libdir=/usr/lib/x86_64-linux-gnu --incdir=/usr/include/x86_64-linux-gnu --cc=cc --cxx=g++ --enable-gpl --enable-shared --disable-stripping --disable-decoder=libopenjpeg --disable-decoder=libschroedinger --enable-avresample --enable-avisynth --enable-gnutls --enable-ladspa --enable-libass --enable-libbluray --enable-libbs2b --enable-libcaca --enable-libcdio --enable-libflite --enable-libfontconfig --enable-libfreetype --enable-libfribidi --enable-libgme --enable-libgsm --enable-libmodplug --enable-libmp3lame --enable-libopenjpeg --enable-libopus --enable-libpulse --enable-librtmp --enable-libschroedinger --enable-libshine --enable-libsnappy --enable-libsoxr --enable-libspeex --enable-libssh --enable-libtheora --enable-libtwolame --enable-libvorbis --enable-libvpx --enable-libwavpack --enable-libwebp --enable-libx265 --enable-libxvid --enable-libzvbi --enable-openal --enable-opengl --enable-x11grab --enable-libdc1394 --enable-libiec61883 --enable-libzmq --enable-frei0r --enable-libx264 --enable-libopencv
  libavutil      54. 31.100 / 54. 31.100
  libavcodec     56. 60.100 / 56. 60.100
  libavformat    56. 40.101 / 56. 40.101
  libavdevice    56.  4.100 / 56.  4.100
  libavfilter     5. 40.101 /  5. 40.101
  libavresample   2.  1.  0 /  2.  1.  0
  libswscale      3.  1.101 /  3.  1.101
  libswresample   1.  2.101 /  1.  2.101
  libpostproc    53.  3.100 / 53.  3.100
[mp3 @ 0x1a798c0] Unknown attached picture mimetype: ('image/png', None), skipping.
[mp3 @ 0x1a798c0] Skipping 0 bytes of junk at 17522.
Input #0, mp3, from 'jan-andrzej-morsztyn-do-swoich-ksiazek-dokad-sie-moja-lutni-napierasz-skwapliwie.mp3':
  Metadata:
    title           : Jan Andrzej Morsztyn, Do swoich książek (Dokąd się, moja lutni, napierasz skwapliwie?)
    artist          : Piotr Głowacki
    album           : Wolne Lektury
    encoder         : Lavf53.21.0
    genre           : Speech
    originator_reference: MWjxzbWrqPcaaaGk
    date            : 2008-09-26
    performer       : Jakub Kowalski
    album_artist    : Fundacja Nowoczesna Polska
    time_reference  : 20101387
    copyright       : 2008 Fundacja Nowoczesna Polska. Licensed to the public under http://creativecommons.org/licenses/by-sa/3.0/deed.pl verify at http://wolnelektury.pl/katalog/lektura/do-swoich-ksiazek-dokad-sie-moja-lutni-napierasz-skwapliwie/
    creation_time   : 0009-36-18
    encoded_by      : Pro Tools
    publisher       : Fundacja Nowoczesna Polska
  Duration: 00:01:39.74, start: 0.000000, bitrate: 65 kb/s
    Stream #0:0: Audio: mp3, 44100 Hz, mono, s16p, 64 kb/s
Output #0, null, to 'pipe:':
  Metadata:
    title           : Jan Andrzej Morsztyn, Do swoich książek (Dokąd się, moja lutni, napierasz skwapliwie?)
    artist          : Piotr Głowacki
    album           : Wolne Lektury
    publisher       : Fundacja Nowoczesna Polska
    genre           : Speech
    originator_reference: MWjxzbWrqPcaaaGk
    date            : 2008-09-26
    performer       : Jakub Kowalski
    album_artist    : Fundacja Nowoczesna Polska
    time_reference  : 20101387
    copyright       : 2008 Fundacja Nowoczesna Polska. Licensed to the public under http://creativecommons.org/licenses/by-sa/3.0/deed.pl verify at http://wolnelektury.pl/katalog/lektura/do-swoich-ksiazek-dokad-sie-moja-lutni-napierasz-skwapliwie/
    encoded_by      : Pro Tools
    encoder         : Lavf56.40.101
    Stream #0:0: Audio: pcm_s16le, 44100 Hz, mono, s16, 705 kb/s
    Metadata:
      encoder         : Lavc56.60.100 pcm_s16le
Stream mapping:
  Stream #0:0 -> #0:0 (mp3 (native) -> pcm_s16le (native))
Press [q] to stop, [?] for help
[silencedetect @ 0x1a974e0] silence_start: -0.00367347
[silencedetect @ 0x1a974e0] silence_end: 0.809796 | silence_duration: 0.813469
[silencedetect @ 0x1a974e0] silence_start: 2.00776
[silencedetect @ 0x1a974e0] silence_end: 3.29143 | silence_duration: 1.28367
[silencedetect @ 0x1a974e0] silence_start: 4.43714
[silencedetect @ 0x1a974e0] silence_end: 5.79918 | silence_duration: 1.36204
[silencedetect @ 0x1a974e0] silence_start: 8.09429
[silencedetect @ 0x1a974e0] silence_end: 10.3706 | silence_duration: 2.27633
[silencedetect @ 0x1a974e0] silence_start: 11.1245
[silencedetect @ 0x1a974e0] silence_end: 12.1992 | silence_duration: 1.07469
[silencedetect @ 0x1a974e0] silence_start: 16.6624
[silencedetect @ 0x1a974e0] silence_end: 18.4163 | silence_duration: 1.75388
[silencedetect @ 0x1a974e0] silence_start: 20.7637
[silencedetect @ 0x1a974e0] silence_end: 22.622 | silence_duration: 1.85837
[silencedetect @ 0x1a974e0] silence_start: 24.0029
[silencedetect @ 0x1a974e0] silence_end: 25.5739 | silence_duration: 1.57102
[silencedetect @ 0x1a974e0] silence_start: 26.8502
[silencedetect @ 0x1a974e0] silence_end: 27.7682 | silence_duration: 0.917959
[silencedetect @ 0x1a974e0] silence_start: 30.0371
[silencedetect @ 0x1a974e0] silence_end: 31.6865 | silence_duration: 1.64939
[silencedetect @ 0x1a974e0] silence_start: 34.5041
[silencedetect @ 0x1a974e0] silence_end: 35.4482 | silence_duration: 0.944082
[silencedetect @ 0x1a974e0] silence_start: 37.2208
[silencedetect @ 0x1a974e0] silence_end: 39.1053 | silence_duration: 1.88449
[silencedetect @ 0x1a974e0] silence_start: 44.7441
[silencedetect @ 0x1a974e0] silence_end: 46.6286 | silence_duration: 1.88449
[silencedetect @ 0x1a974e0] silence_start: 49.5767
[silencedetect @ 0x1a974e0] silence_end: 50.2073 | silence_duration: 0.630612
[silencedetect @ 0x1a974e0] silence_start: 52.6592
[silencedetect @ 0x1a974e0] silence_end: 54.178 | silence_duration: 1.51878
[silencedetect @ 0x1a974e0] silence_start: 56.6298
[silencedetect @ 0x1a974e0] silence_end: 57.4171 | silence_duration: 0.787347
[silencedetect @ 0x1a974e0] silence_start: 58.4322
[silencedetect @ 0x1a974e0] silence_end: 59.0106 | silence_duration: 0.578367
[silencedetect @ 0x1a974e0] silence_start: 60.3392
[silencedetect @ 0x1a974e0] silence_end: 61.3355 | silence_duration: 0.996327
[silencedetect @ 0x1a974e0] silence_start: 63.7612
[silencedetect @ 0x1a974e0] silence_end: 64.7314 | silence_duration: 0.970204
[silencedetect @ 0x1a974e0] silence_start: 67.4184
[silencedetect @ 0x1a974e0] silence_end: 68.5976 | silence_duration: 1.17918
[silencedetect @ 0x1a974e0] silence_start: 72.1204
[silencedetect @ 0x1a974e0] silence_end: 73.169 | silence_duration: 1.04857
[silencedetect @ 0x1a974e0] silence_start: 75.02
[silencedetect @ 0x1a974e0] silence_end: 75.8857 | silence_duration: 0.865714
[silencedetect @ 0x1a974e0] silence_start: 78.1808
[silencedetect @ 0x1a974e0] silence_end: 78.7069 | silence_duration: 0.526122
[silencedetect @ 0x1a974e0] silence_start: 81.8902
[silencedetect @ 0x1a974e0] silence_end: 83.3045 | silence_duration: 1.41429
[silencedetect @ 0x1a974e0] silence_start: 85.3645
[silencedetect @ 0x1a974e0] silence_end: 86.6743 | silence_duration: 1.3098
[silencedetect @ 0x1a974e0] silence_start: 88.9433
[silencedetect @ 0x1a974e0] silence_end: 89.9135 | silence_duration: 0.970204
[silencedetect @ 0x1a974e0] silence_start: 92.4437
[silencedetect @ 0x1a974e0] silence_end: 93.9363 | silence_duration: 1.49265
[silencedetect @ 0x1a974e0] silence_start: 94.5073
[silencedetect @ 0x1a974e0] silence_end: 95.9478 | silence_duration: 1.44041
[silencedetect @ 0x1a974e0] silence_start: 97.5637
size=N/A time=00:01:39.73 bitrate=N/A    
video:0kB audio:8590kB subtitle:0kB other streams:0kB global headers:0kB muxing overhead: unknown
